<svg xmlns="http://www.w3.org/2000/svg" xmlns:xlink="http://www.w3.org/1999/xlink" width="500" zoomAndPan="magnify" viewBox="0 0 375 374.999991" height="500" preserveAspectRatio="xMidYMid meet" version="1.0"><defs><clipPath id="e916e91087"><path d="M 29 138 L 223 138 L 223 335 L 29 335 Z M 29 138 " clip-rule="nonzero"/></clipPath><clipPath id="d09e83b58a"><path d="M -11.46875 168.921875 L 126.222656 41.65625 L 316.613281 247.644531 L 178.917969 374.914062 Z M -11.46875 168.921875 " clip-rule="nonzero"/></clipPath><clipPath id="74cb6f55a0"><path d="M -11.46875 168.921875 L 126.222656 41.65625 L 316.613281 247.644531 L 178.917969 374.914062 Z M -11.46875 168.921875 " clip-rule="nonzero"/></clipPath><clipPath id="985e9f1897"><path d="M 128 46 L 323 46 L 323 244 L 128 244 Z M 128 46 " clip-rule="nonzero"/></clipPath><clipPath id="e9899d5e09"><path d="M 87.746094 77.21875 L 225.441406 -50.046875 L 415.832031 155.941406 L 278.136719 283.207031 Z M 87.746094 77.21875 " clip-rule="nonzero"/></clipPath><clipPath id="e1c4d25ab6"><path d="M 87.746094 77.21875 L 225.441406 -50.046875 L 415.832031 155.941406 L 278.136719 283.207031 Z M 87.746094 77.21875 " clip-rule="nonzero"/></clipPath></defs><rect x="-37.5" width="450" fill="#ffffff" y="-37.499999" height="449.999989" fill-opacity="1"/><rect x="-37.5" width="450" fill="#ffffff" y="-37.499999" height="449.999989" fill-opacity="1"/><g clip-path="url(#e916e91087)"><g clip-path="url(#d09e83b58a)"><g clip-path="url(#74cb6f55a0)"><path fill="#18cb96" d="M 222.960938 146.03125 L 55.3125 138.582031 C 22.929688 137.140625 17.460938 200.21875 55.828125 201.261719 L 160.148438 204.085938 L 152.183594 309.058594 C 149.753906 341.019531 212.097656 344.398438 213.875 311.910156 Z M 222.960938 146.03125 " fill-opacity="1" fill-rule="nonzero"/></g></g></g><g clip-path="url(#985e9f1897)"><g clip-path="url(#e9899d5e09)"><g clip-path="url(#e1c4d25ab6)"><path fill="#18cb96" d="M 322.179688 54.328125 L 154.53125 46.875 C 122.148438 45.4375 116.679688 108.515625 155.046875 109.554688 L 259.367188 112.382812 L 251.398438 217.351562 C 248.972656 249.316406 311.316406 252.691406 313.09375 220.207031 Z M 322.179688 54.328125 " fill-opacity="1" fill-rule="nonzero"/></g></g></g></svg>