<svg xmlns="http://www.w3.org/2000/svg" xmlns:xlink="http://www.w3.org/1999/xlink" width="500" zoomAndPan="magnify" viewBox="0 0 375 374.999991" height="500" preserveAspectRatio="xMidYMid meet" version="1.0"><defs><g/><clipPath id="d4af470994"><path d="M 313 109 L 353 109 L 353 150 L 313 150 Z M 313 109 " clip-rule="nonzero"/></clipPath><clipPath id="0bcfb67515"><path d="M 305.058594 116.023438 L 333.148438 90.0625 L 371.835938 131.921875 L 343.746094 157.882812 Z M 305.058594 116.023438 " clip-rule="nonzero"/></clipPath><clipPath id="5d764b1a9c"><path d="M 305.058594 116.023438 L 333.148438 90.0625 L 371.835938 131.921875 L 343.746094 157.882812 Z M 305.058594 116.023438 " clip-rule="nonzero"/></clipPath><clipPath id="2e3f1e973f"><path d="M 333 91 L 373 91 L 373 132 L 333 132 Z M 333 91 " clip-rule="nonzero"/></clipPath><clipPath id="d678ad1d86"><path d="M 325.242188 97.367188 L 353.332031 71.40625 L 392.023438 113.261719 L 363.933594 139.226562 Z M 325.242188 97.367188 " clip-rule="nonzero"/></clipPath><clipPath id="0f0f838ed2"><path d="M 325.242188 97.367188 L 353.332031 71.40625 L 392.023438 113.261719 L 363.933594 139.226562 Z M 325.242188 97.367188 " clip-rule="nonzero"/></clipPath></defs><g clip-path="url(#d4af470994)"><g clip-path="url(#0bcfb67515)"><g clip-path="url(#5d764b1a9c)"><path fill="#18cb96" d="M 352.746094 111.371094 L 318.644531 109.855469 C 312.054688 109.5625 310.945312 122.394531 318.75 122.605469 L 339.96875 123.179688 L 338.347656 144.53125 C 337.851562 151.03125 350.535156 151.71875 350.894531 145.113281 Z M 352.746094 111.371094 " fill-opacity="1" fill-rule="nonzero"/></g></g></g><g clip-path="url(#2e3f1e973f)"><g clip-path="url(#d678ad1d86)"><g clip-path="url(#0f0f838ed2)"><path fill="#18cb96" d="M 372.929688 92.710938 L 338.828125 91.195312 C 332.242188 90.902344 331.128906 103.734375 338.933594 103.945312 L 360.152344 104.519531 L 358.535156 125.875 C 358.039062 132.375 370.71875 133.0625 371.082031 126.453125 Z M 372.929688 92.710938 " fill-opacity="1" fill-rule="nonzero"/></g></g></g><g fill="#3b3355" fill-opacity="1"><g transform="translate(4.745914, 183.792619)"><g><path d="M 32.78125 -64.859375 C 33.851562 -64.859375 34.851562 -64.640625 35.78125 -64.203125 C 36.71875 -63.773438 37.421875 -63.0625 37.890625 -62.0625 L 66.265625 -6.421875 C 67.128906 -4.941406 67.359375 -3.648438 66.953125 -2.546875 C 66.554688 -1.453125 65.789062 -0.585938 64.65625 0.046875 C 63.519531 0.679688 62.316406 1 61.046875 1 C 60.117188 1 59.164062 0.75 58.1875 0.25 C 57.21875 -0.25 56.46875 -0.96875 55.9375 -1.90625 L 48.921875 -15.84375 L 16.640625 -15.84375 L 9.625 -1.90625 C 9.15625 -0.832031 8.4375 -0.0820312 7.46875 0.34375 C 6.5 0.78125 5.546875 1 4.609375 1 C 3.472656 1 2.351562 0.679688 1.25 0.046875 C 0.144531 -0.585938 -0.65625 -1.453125 -1.15625 -2.546875 C -1.65625 -3.648438 -1.601562 -4.835938 -1 -6.109375 L 27.5625 -62.0625 C 28.101562 -63.195312 28.789062 -63.945312 29.625 -64.3125 C 30.457031 -64.675781 31.507812 -64.859375 32.78125 -64.859375 Z M 32.78125 -47.921875 L 21.546875 -25.5625 L 44.015625 -25.5625 Z M 32.78125 -47.921875 "/></g></g></g><g fill="#3b3355" fill-opacity="1"><g transform="translate(70.804563, 183.792619)"><g><path d="M 1.296875 -11.9375 C 0.828125 -13.800781 1.257812 -15.300781 2.59375 -16.4375 C 3.9375 -17.570312 5.410156 -18.140625 7.015625 -18.140625 C 8.222656 -18.140625 9.289062 -17.789062 10.21875 -17.09375 C 11.15625 -16.394531 11.859375 -15.34375 12.328125 -13.9375 C 12.734375 -12.726562 13.601562 -11.738281 14.9375 -10.96875 C 16.269531 -10.207031 17.820312 -9.660156 19.59375 -9.328125 C 21.363281 -8.992188 23.15625 -8.828125 24.96875 -8.828125 C 28.570312 -8.828125 31.476562 -9.476562 33.6875 -10.78125 C 35.894531 -12.082031 37 -13.734375 37 -15.734375 C 37 -17.140625 36.410156 -18.175781 35.234375 -18.84375 C 34.066406 -19.507812 32.53125 -19.976562 30.625 -20.25 C 28.71875 -20.519531 26.695312 -20.722656 24.5625 -20.859375 C 21.75 -21.117188 18.988281 -21.445312 16.28125 -21.84375 C 13.582031 -22.25 11.128906 -22.9375 8.921875 -23.90625 C 6.710938 -24.875 4.941406 -26.3125 3.609375 -28.21875 C 2.273438 -30.125 1.609375 -32.710938 1.609375 -35.984375 C 1.609375 -39.191406 2.539062 -42 4.40625 -44.40625 C 6.28125 -46.8125 8.921875 -48.679688 12.328125 -50.015625 C 15.734375 -51.359375 19.675781 -52.03125 24.15625 -52.03125 C 26.757812 -52.03125 29.566406 -51.78125 32.578125 -51.28125 C 35.585938 -50.78125 38.378906 -49.757812 40.953125 -48.21875 C 43.523438 -46.6875 45.410156 -44.316406 46.609375 -41.109375 C 47.078125 -39.765625 47.046875 -38.570312 46.515625 -37.53125 C 45.984375 -36.5 45.195312 -35.71875 44.15625 -35.1875 C 43.125 -34.65625 42.070312 -34.390625 41 -34.390625 C 39.800781 -34.390625 38.816406 -34.625 38.046875 -35.09375 C 37.273438 -35.5625 36.625 -36.363281 36.09375 -37.5 C 35.488281 -38.894531 34.46875 -39.925781 33.03125 -40.59375 C 31.59375 -41.269531 30.054688 -41.691406 28.421875 -41.859375 C 26.785156 -42.023438 25.363281 -42.109375 24.15625 -42.109375 C 20.8125 -42.109375 18.117188 -41.539062 16.078125 -40.40625 C 14.046875 -39.269531 13.03125 -37.765625 13.03125 -35.890625 C 13.03125 -34.285156 13.5625 -33.195312 14.625 -32.625 C 15.695312 -32.0625 17.148438 -31.726562 18.984375 -31.625 C 20.828125 -31.53125 22.882812 -31.347656 25.15625 -31.078125 C 27.96875 -30.742188 30.742188 -30.375 33.484375 -29.96875 C 36.222656 -29.570312 38.726562 -28.890625 41 -27.921875 C 43.269531 -26.953125 45.070312 -25.515625 46.40625 -23.609375 C 47.75 -21.703125 48.421875 -19.078125 48.421875 -15.734375 C 48.421875 -12.460938 47.429688 -9.554688 45.453125 -7.015625 C 43.484375 -4.472656 40.742188 -2.5 37.234375 -1.09375 C 33.734375 0.300781 29.644531 1 24.96875 1 C 22.894531 1 20.632812 0.847656 18.1875 0.546875 C 15.75 0.242188 13.378906 -0.351562 11.078125 -1.25 C 8.773438 -2.15625 6.753906 -3.457031 5.015625 -5.15625 C 3.273438 -6.863281 2.035156 -9.125 1.296875 -11.9375 Z M 1.296875 -11.9375 "/></g></g></g><g fill="#3b3355" fill-opacity="1"><g transform="translate(120.624117, 183.792619)"><g><path d="M 1.296875 -11.9375 C 0.828125 -13.800781 1.257812 -15.300781 2.59375 -16.4375 C 3.9375 -17.570312 5.410156 -18.140625 7.015625 -18.140625 C 8.222656 -18.140625 9.289062 -17.789062 10.21875 -17.09375 C 11.15625 -16.394531 11.859375 -15.34375 12.328125 -13.9375 C 12.734375 -12.726562 13.601562 -11.738281 14.9375 -10.96875 C 16.269531 -10.207031 17.820312 -9.660156 19.59375 -9.328125 C 21.363281 -8.992188 23.15625 -8.828125 24.96875 -8.828125 C 28.570312 -8.828125 31.476562 -9.476562 33.6875 -10.78125 C 35.894531 -12.082031 37 -13.734375 37 -15.734375 C 37 -17.140625 36.410156 -18.175781 35.234375 -18.84375 C 34.066406 -19.507812 32.53125 -19.976562 30.625 -20.25 C 28.71875 -20.519531 26.695312 -20.722656 24.5625 -20.859375 C 21.75 -21.117188 18.988281 -21.445312 16.28125 -21.84375 C 13.582031 -22.25 11.128906 -22.9375 8.921875 -23.90625 C 6.710938 -24.875 4.941406 -26.3125 3.609375 -28.21875 C 2.273438 -30.125 1.609375 -32.710938 1.609375 -35.984375 C 1.609375 -39.191406 2.539062 -42 4.40625 -44.40625 C 6.28125 -46.8125 8.921875 -48.679688 12.328125 -50.015625 C 15.734375 -51.359375 19.675781 -52.03125 24.15625 -52.03125 C 26.757812 -52.03125 29.566406 -51.78125 32.578125 -51.28125 C 35.585938 -50.78125 38.378906 -49.757812 40.953125 -48.21875 C 43.523438 -46.6875 45.410156 -44.316406 46.609375 -41.109375 C 47.078125 -39.765625 47.046875 -38.570312 46.515625 -37.53125 C 45.984375 -36.5 45.195312 -35.71875 44.15625 -35.1875 C 43.125 -34.65625 42.070312 -34.390625 41 -34.390625 C 39.800781 -34.390625 38.816406 -34.625 38.046875 -35.09375 C 37.273438 -35.5625 36.625 -36.363281 36.09375 -37.5 C 35.488281 -38.894531 34.46875 -39.925781 33.03125 -40.59375 C 31.59375 -41.269531 30.054688 -41.691406 28.421875 -41.859375 C 26.785156 -42.023438 25.363281 -42.109375 24.15625 -42.109375 C 20.8125 -42.109375 18.117188 -41.539062 16.078125 -40.40625 C 14.046875 -39.269531 13.03125 -37.765625 13.03125 -35.890625 C 13.03125 -34.285156 13.5625 -33.195312 14.625 -32.625 C 15.695312 -32.0625 17.148438 -31.726562 18.984375 -31.625 C 20.828125 -31.53125 22.882812 -31.347656 25.15625 -31.078125 C 27.96875 -30.742188 30.742188 -30.375 33.484375 -29.96875 C 36.222656 -29.570312 38.726562 -28.890625 41 -27.921875 C 43.269531 -26.953125 45.070312 -25.515625 46.40625 -23.609375 C 47.75 -21.703125 48.421875 -19.078125 48.421875 -15.734375 C 48.421875 -12.460938 47.429688 -9.554688 45.453125 -7.015625 C 43.484375 -4.472656 40.742188 -2.5 37.234375 -1.09375 C 33.734375 0.300781 29.644531 1 24.96875 1 C 22.894531 1 20.632812 0.847656 18.1875 0.546875 C 15.75 0.242188 13.378906 -0.351562 11.078125 -1.25 C 8.773438 -2.15625 6.753906 -3.457031 5.015625 -5.15625 C 3.273438 -6.863281 2.035156 -9.125 1.296875 -11.9375 Z M 1.296875 -11.9375 "/></g></g></g><g fill="#3b3355" fill-opacity="1"><g transform="translate(170.443671, 183.792619)"><g><path d="M 15.03125 -58.546875 C 15.03125 -56.878906 14.410156 -55.625 13.171875 -54.78125 C 11.941406 -53.945312 10.625 -53.53125 9.21875 -53.53125 C 7.75 -53.53125 6.410156 -53.945312 5.203125 -54.78125 C 4.003906 -55.625 3.40625 -56.878906 3.40625 -58.546875 L 3.40625 -59.84375 C 3.40625 -61.582031 4.003906 -62.851562 5.203125 -63.65625 C 6.410156 -64.457031 7.75 -64.859375 9.21875 -64.859375 C 10.625 -64.859375 11.941406 -64.457031 13.171875 -63.65625 C 14.410156 -62.851562 15.03125 -61.582031 15.03125 -59.84375 Z M 3.515625 -46.109375 C 3.515625 -47.710938 4.128906 -48.929688 5.359375 -49.765625 C 6.597656 -50.609375 7.882812 -51.03125 9.21875 -51.03125 C 10.625 -51.03125 11.925781 -50.609375 13.125 -49.765625 C 14.332031 -48.929688 14.9375 -47.75 14.9375 -46.21875 L 14.9375 -4.90625 C 14.9375 -3.238281 14.332031 -2.003906 13.125 -1.203125 C 11.925781 -0.398438 10.625 0 9.21875 0 C 7.882812 0 6.597656 -0.398438 5.359375 -1.203125 C 4.128906 -2.003906 3.515625 -3.238281 3.515625 -4.90625 Z M 3.515625 -46.109375 "/></g></g></g><g fill="#3b3355" fill-opacity="1"><g transform="translate(186.882869, 183.792619)"><g><path d="M 1.296875 -11.9375 C 0.828125 -13.800781 1.257812 -15.300781 2.59375 -16.4375 C 3.9375 -17.570312 5.410156 -18.140625 7.015625 -18.140625 C 8.222656 -18.140625 9.289062 -17.789062 10.21875 -17.09375 C 11.15625 -16.394531 11.859375 -15.34375 12.328125 -13.9375 C 12.734375 -12.726562 13.601562 -11.738281 14.9375 -10.96875 C 16.269531 -10.207031 17.820312 -9.660156 19.59375 -9.328125 C 21.363281 -8.992188 23.15625 -8.828125 24.96875 -8.828125 C 28.570312 -8.828125 31.476562 -9.476562 33.6875 -10.78125 C 35.894531 -12.082031 37 -13.734375 37 -15.734375 C 37 -17.140625 36.410156 -18.175781 35.234375 -18.84375 C 34.066406 -19.507812 32.53125 -19.976562 30.625 -20.25 C 28.71875 -20.519531 26.695312 -20.722656 24.5625 -20.859375 C 21.75 -21.117188 18.988281 -21.445312 16.28125 -21.84375 C 13.582031 -22.25 11.128906 -22.9375 8.921875 -23.90625 C 6.710938 -24.875 4.941406 -26.3125 3.609375 -28.21875 C 2.273438 -30.125 1.609375 -32.710938 1.609375 -35.984375 C 1.609375 -39.191406 2.539062 -42 4.40625 -44.40625 C 6.28125 -46.8125 8.921875 -48.679688 12.328125 -50.015625 C 15.734375 -51.359375 19.675781 -52.03125 24.15625 -52.03125 C 26.757812 -52.03125 29.566406 -51.78125 32.578125 -51.28125 C 35.585938 -50.78125 38.378906 -49.757812 40.953125 -48.21875 C 43.523438 -46.6875 45.410156 -44.316406 46.609375 -41.109375 C 47.078125 -39.765625 47.046875 -38.570312 46.515625 -37.53125 C 45.984375 -36.5 45.195312 -35.71875 44.15625 -35.1875 C 43.125 -34.65625 42.070312 -34.390625 41 -34.390625 C 39.800781 -34.390625 38.816406 -34.625 38.046875 -35.09375 C 37.273438 -35.5625 36.625 -36.363281 36.09375 -37.5 C 35.488281 -38.894531 34.46875 -39.925781 33.03125 -40.59375 C 31.59375 -41.269531 30.054688 -41.691406 28.421875 -41.859375 C 26.785156 -42.023438 25.363281 -42.109375 24.15625 -42.109375 C 20.8125 -42.109375 18.117188 -41.539062 16.078125 -40.40625 C 14.046875 -39.269531 13.03125 -37.765625 13.03125 -35.890625 C 13.03125 -34.285156 13.5625 -33.195312 14.625 -32.625 C 15.695312 -32.0625 17.148438 -31.726562 18.984375 -31.625 C 20.828125 -31.53125 22.882812 -31.347656 25.15625 -31.078125 C 27.96875 -30.742188 30.742188 -30.375 33.484375 -29.96875 C 36.222656 -29.570312 38.726562 -28.890625 41 -27.921875 C 43.269531 -26.953125 45.070312 -25.515625 46.40625 -23.609375 C 47.75 -21.703125 48.421875 -19.078125 48.421875 -15.734375 C 48.421875 -12.460938 47.429688 -9.554688 45.453125 -7.015625 C 43.484375 -4.472656 40.742188 -2.5 37.234375 -1.09375 C 33.734375 0.300781 29.644531 1 24.96875 1 C 22.894531 1 20.632812 0.847656 18.1875 0.546875 C 15.75 0.242188 13.378906 -0.351562 11.078125 -1.25 C 8.773438 -2.15625 6.753906 -3.457031 5.015625 -5.15625 C 3.273438 -6.863281 2.035156 -9.125 1.296875 -11.9375 Z M 1.296875 -11.9375 "/></g></g></g><g fill="#3b3355" fill-opacity="1"><g transform="translate(236.702424, 183.792619)"><g><path d="M 27.5625 -9.53125 C 29.101562 -10.394531 30.488281 -10.691406 31.71875 -10.421875 C 32.957031 -10.160156 33.960938 -9.578125 34.734375 -8.671875 C 35.503906 -7.765625 35.890625 -6.710938 35.890625 -5.515625 C 35.890625 -4.640625 35.617188 -3.769531 35.078125 -2.90625 C 34.546875 -2.039062 33.710938 -1.304688 32.578125 -0.703125 C 31.109375 0.0976562 29.769531 0.582031 28.5625 0.75 C 27.363281 0.914062 25.960938 1 24.359375 1 C 20.015625 1 16.671875 0.0976562 14.328125 -1.703125 C 11.992188 -3.503906 10.390625 -5.84375 9.515625 -8.71875 C 8.648438 -11.59375 8.21875 -14.632812 8.21875 -17.84375 L 8.21875 -41.5 L 4.40625 -41.5 C 2.539062 -41.5 1.15625 -42 0.25 -43 C -0.65625 -44.007812 -1.109375 -45.082031 -1.109375 -46.21875 C -1.109375 -47.414062 -0.640625 -48.515625 0.296875 -49.515625 C 1.234375 -50.523438 2.601562 -51.03125 4.40625 -51.03125 L 8.21875 -51.03125 L 8.21875 -59.65625 C 8.21875 -61.382812 8.785156 -62.679688 9.921875 -63.546875 C 11.054688 -64.421875 12.359375 -64.859375 13.828125 -64.859375 C 15.234375 -64.859375 16.535156 -64.421875 17.734375 -63.546875 C 18.941406 -62.679688 19.546875 -61.382812 19.546875 -59.65625 L 19.546875 -51.03125 L 27.375 -51.03125 C 29.101562 -51.03125 30.4375 -50.523438 31.375 -49.515625 C 32.3125 -48.515625 32.78125 -47.414062 32.78125 -46.21875 C 32.78125 -45.007812 32.3125 -43.921875 31.375 -42.953125 C 30.4375 -41.984375 29.101562 -41.5 27.375 -41.5 L 19.546875 -41.5 L 19.546875 -17.84375 C 19.546875 -16.375 19.644531 -14.953125 19.84375 -13.578125 C 20.050781 -12.210938 20.503906 -11.078125 21.203125 -10.171875 C 21.898438 -9.273438 22.953125 -8.828125 24.359375 -8.828125 C 24.890625 -8.828125 25.472656 -8.910156 26.109375 -9.078125 C 26.742188 -9.242188 27.226562 -9.394531 27.5625 -9.53125 Z M 27.5625 -9.53125 "/></g></g></g><g fill="#3b3355" fill-opacity="1"><g transform="translate(271.485753, 183.792619)"><g><path d="M 46.609375 -51.03125 C 48.347656 -51.03125 49.734375 -50.546875 50.765625 -49.578125 C 51.804688 -48.609375 52.328125 -47.351562 52.328125 -45.8125 L 52.328125 -5.21875 C 52.328125 -3.675781 51.804688 -2.421875 50.765625 -1.453125 C 49.734375 -0.484375 48.347656 0 46.609375 0 C 44.941406 0 43.640625 -0.382812 42.703125 -1.15625 C 41.765625 -1.925781 41.195312 -2.941406 41 -4.203125 C 38.726562 -2.398438 36.1875 -1.082031 33.375 -0.25 C 30.570312 0.582031 27.898438 1 25.359375 1 C 20.546875 1 16.382812 -0.0976562 12.875 -2.296875 C 9.375 -4.503906 6.6875 -7.613281 4.8125 -11.625 C 2.9375 -15.632812 2 -20.3125 2 -25.65625 C 2 -30.875 3.035156 -35.453125 5.109375 -39.390625 C 7.179688 -43.335938 10.070312 -46.429688 13.78125 -48.671875 C 17.488281 -50.910156 21.785156 -52.03125 26.671875 -52.03125 C 28.804688 -52.03125 31.175781 -51.628906 33.78125 -50.828125 C 36.382812 -50.023438 38.789062 -48.753906 41 -47.015625 C 41.269531 -48.222656 41.867188 -49.191406 42.796875 -49.921875 C 43.734375 -50.660156 45.003906 -51.03125 46.609375 -51.03125 Z M 26.5625 -9.125 C 29.507812 -9.125 32.351562 -9.773438 35.09375 -11.078125 C 37.832031 -12.378906 39.769531 -14.300781 40.90625 -16.84375 L 40.90625 -34.1875 C 39.632812 -36.65625 37.726562 -38.554688 35.1875 -39.890625 C 32.644531 -41.234375 30.070312 -41.90625 27.46875 -41.90625 C 23.257812 -41.90625 19.867188 -40.367188 17.296875 -37.296875 C 14.722656 -34.222656 13.4375 -30.3125 13.4375 -25.5625 C 13.4375 -20.613281 14.640625 -16.632812 17.046875 -13.625 C 19.453125 -10.625 22.625 -9.125 26.5625 -9.125 Z M 26.5625 -9.125 "/></g></g></g><g fill="#3b3355" fill-opacity="1"><g transform="translate(4.745914, 264.827414)"><g><path d="M 16.671875 0.375 C 13.960938 0.375 11.535156 -0.0625 9.390625 -0.9375 C 7.242188 -1.820312 5.53125 -3.125 4.25 -4.84375 C 2.96875 -6.570312 2.289062 -8.648438 2.21875 -11.078125 L 11.8125 -11.078125 C 11.957031 -9.703125 12.429688 -8.65625 13.234375 -7.9375 C 14.046875 -7.21875 15.101562 -6.859375 16.40625 -6.859375 C 17.738281 -6.859375 18.789062 -7.164062 19.5625 -7.78125 C 20.332031 -8.394531 20.71875 -9.25 20.71875 -10.34375 C 20.71875 -11.25 20.410156 -12 19.796875 -12.59375 C 19.179688 -13.195312 18.425781 -13.691406 17.53125 -14.078125 C 16.632812 -14.460938 15.363281 -14.90625 13.71875 -15.40625 C 11.320312 -16.132812 9.367188 -16.867188 7.859375 -17.609375 C 6.347656 -18.347656 5.046875 -19.4375 3.953125 -20.875 C 2.867188 -22.320312 2.328125 -24.207031 2.328125 -26.53125 C 2.328125 -29.96875 3.570312 -32.660156 6.0625 -34.609375 C 8.5625 -36.566406 11.816406 -37.546875 15.828125 -37.546875 C 19.898438 -37.546875 23.179688 -36.566406 25.671875 -34.609375 C 28.171875 -32.660156 29.507812 -29.945312 29.6875 -26.46875 L 19.9375 -26.46875 C 19.863281 -27.664062 19.421875 -28.609375 18.609375 -29.296875 C 17.804688 -29.984375 16.769531 -30.328125 15.5 -30.328125 C 14.414062 -30.328125 13.535156 -30.035156 12.859375 -29.453125 C 12.191406 -28.867188 11.859375 -28.035156 11.859375 -26.953125 C 11.859375 -25.753906 12.421875 -24.820312 13.546875 -24.15625 C 14.671875 -23.488281 16.429688 -22.765625 18.828125 -21.984375 C 21.210938 -21.179688 23.148438 -20.410156 24.640625 -19.671875 C 26.140625 -18.929688 27.4375 -17.859375 28.53125 -16.453125 C 29.625 -15.046875 30.171875 -13.234375 30.171875 -11.015625 C 30.171875 -8.910156 29.632812 -6.992188 28.5625 -5.265625 C 27.488281 -3.546875 25.929688 -2.175781 23.890625 -1.15625 C 21.847656 -0.132812 19.441406 0.375 16.671875 0.375 Z M 16.671875 0.375 "/></g></g></g><g fill="#3b3355" fill-opacity="1"><g transform="translate(35.173214, 264.827414)"><g><path d="M 32.328125 -29.421875 L 32.328125 0 L 23.3125 0 L 23.3125 -4.015625 C 22.394531 -2.710938 21.15625 -1.664062 19.59375 -0.875 C 18.03125 -0.0820312 16.296875 0.3125 14.390625 0.3125 C 12.140625 0.3125 10.15625 -0.1875 8.4375 -1.1875 C 6.71875 -2.1875 5.378906 -3.632812 4.421875 -5.53125 C 3.472656 -7.4375 3 -9.671875 3 -12.234375 L 3 -29.421875 L 11.96875 -29.421875 L 11.96875 -13.453125 C 11.96875 -11.484375 12.476562 -9.953125 13.5 -8.859375 C 14.519531 -7.765625 15.890625 -7.21875 17.609375 -7.21875 C 19.367188 -7.21875 20.757812 -7.765625 21.78125 -8.859375 C 22.800781 -9.953125 23.3125 -11.484375 23.3125 -13.453125 L 23.3125 -29.421875 Z M 32.328125 -29.421875 "/></g></g></g><g fill="#3b3355" fill-opacity="1"><g transform="translate(68.711843, 264.827414)"><g><path d="M 12.28125 -25.265625 C 13.164062 -26.628906 14.378906 -27.734375 15.921875 -28.578125 C 17.472656 -29.421875 19.285156 -29.84375 21.359375 -29.84375 C 23.785156 -29.84375 25.984375 -29.226562 27.953125 -28 C 29.921875 -26.769531 31.472656 -25.007812 32.609375 -22.71875 C 33.753906 -20.4375 34.328125 -17.785156 34.328125 -14.765625 C 34.328125 -11.742188 33.753906 -9.082031 32.609375 -6.78125 C 31.472656 -4.476562 29.921875 -2.703125 27.953125 -1.453125 C 25.984375 -0.203125 23.785156 0.421875 21.359375 0.421875 C 19.316406 0.421875 17.515625 0 15.953125 -0.84375 C 14.390625 -1.6875 13.164062 -2.773438 12.28125 -4.109375 L 12.28125 14.03125 L 3.265625 14.03125 L 3.265625 -29.421875 L 12.28125 -29.421875 Z M 25.15625 -14.765625 C 25.15625 -17.015625 24.53125 -18.78125 23.28125 -20.0625 C 22.03125 -21.34375 20.492188 -21.984375 18.671875 -21.984375 C 16.878906 -21.984375 15.359375 -21.332031 14.109375 -20.03125 C 12.859375 -18.738281 12.234375 -16.96875 12.234375 -14.71875 C 12.234375 -12.46875 12.859375 -10.691406 14.109375 -9.390625 C 15.359375 -8.085938 16.878906 -7.4375 18.671875 -7.4375 C 20.460938 -7.4375 21.988281 -8.09375 23.25 -9.40625 C 24.519531 -10.726562 25.15625 -12.515625 25.15625 -14.765625 Z M 25.15625 -14.765625 "/></g></g></g><g fill="#3b3355" fill-opacity="1"><g transform="translate(102.514146, 264.827414)"><g><path d="M 12.28125 -25.265625 C 13.164062 -26.628906 14.378906 -27.734375 15.921875 -28.578125 C 17.472656 -29.421875 19.285156 -29.84375 21.359375 -29.84375 C 23.785156 -29.84375 25.984375 -29.226562 27.953125 -28 C 29.921875 -26.769531 31.472656 -25.007812 32.609375 -22.71875 C 33.753906 -20.4375 34.328125 -17.785156 34.328125 -14.765625 C 34.328125 -11.742188 33.753906 -9.082031 32.609375 -6.78125 C 31.472656 -4.476562 29.921875 -2.703125 27.953125 -1.453125 C 25.984375 -0.203125 23.785156 0.421875 21.359375 0.421875 C 19.316406 0.421875 17.515625 0 15.953125 -0.84375 C 14.390625 -1.6875 13.164062 -2.773438 12.28125 -4.109375 L 12.28125 14.03125 L 3.265625 14.03125 L 3.265625 -29.421875 L 12.28125 -29.421875 Z M 25.15625 -14.765625 C 25.15625 -17.015625 24.53125 -18.78125 23.28125 -20.0625 C 22.03125 -21.34375 20.492188 -21.984375 18.671875 -21.984375 C 16.878906 -21.984375 15.359375 -21.332031 14.109375 -20.03125 C 12.859375 -18.738281 12.234375 -16.96875 12.234375 -14.71875 C 12.234375 -12.46875 12.859375 -10.691406 14.109375 -9.390625 C 15.359375 -8.085938 16.878906 -7.4375 18.671875 -7.4375 C 20.460938 -7.4375 21.988281 -8.09375 23.25 -9.40625 C 24.519531 -10.726562 25.15625 -12.515625 25.15625 -14.765625 Z M 25.15625 -14.765625 "/></g></g></g><g fill="#3b3355" fill-opacity="1"><g transform="translate(136.316443, 264.827414)"><g><path d="M 16.671875 0.421875 C 13.785156 0.421875 11.191406 -0.191406 8.890625 -1.421875 C 6.585938 -2.648438 4.773438 -4.40625 3.453125 -6.6875 C 2.140625 -8.976562 1.484375 -11.65625 1.484375 -14.71875 C 1.484375 -17.738281 2.148438 -20.398438 3.484375 -22.703125 C 4.816406 -25.003906 6.644531 -26.769531 8.96875 -28 C 11.289062 -29.226562 13.890625 -29.84375 16.765625 -29.84375 C 19.648438 -29.84375 22.253906 -29.226562 24.578125 -28 C 26.898438 -26.769531 28.726562 -25.003906 30.0625 -22.703125 C 31.394531 -20.398438 32.0625 -17.738281 32.0625 -14.71875 C 32.0625 -11.6875 31.382812 -9.019531 30.03125 -6.71875 C 28.675781 -4.414062 26.828125 -2.648438 24.484375 -1.421875 C 22.148438 -0.191406 19.546875 0.421875 16.671875 0.421875 Z M 16.671875 -7.390625 C 18.390625 -7.390625 19.851562 -8.019531 21.0625 -9.28125 C 22.28125 -10.550781 22.890625 -12.363281 22.890625 -14.71875 C 22.890625 -17.070312 22.300781 -18.878906 21.125 -20.140625 C 19.945312 -21.410156 18.492188 -22.046875 16.765625 -22.046875 C 15.015625 -22.046875 13.554688 -21.421875 12.390625 -20.171875 C 11.234375 -18.921875 10.65625 -17.101562 10.65625 -14.71875 C 10.65625 -12.363281 11.222656 -10.550781 12.359375 -9.28125 C 13.503906 -8.019531 14.941406 -7.390625 16.671875 -7.390625 Z M 16.671875 -7.390625 "/></g></g></g><g fill="#3b3355" fill-opacity="1"><g transform="translate(167.903897, 264.827414)"><g><path d="M 12.28125 -24.515625 C 13.34375 -26.140625 14.660156 -27.414062 16.234375 -28.34375 C 17.816406 -29.28125 19.578125 -29.75 21.515625 -29.75 L 21.515625 -20.203125 L 19.03125 -20.203125 C 16.78125 -20.203125 15.09375 -19.71875 13.96875 -18.75 C 12.84375 -17.78125 12.28125 -16.082031 12.28125 -13.65625 L 12.28125 0 L 3.265625 0 L 3.265625 -29.421875 L 12.28125 -29.421875 Z M 12.28125 -24.515625 "/></g></g></g><g fill="#3b3355" fill-opacity="1"><g transform="translate(188.469867, 264.827414)"><g><path d="M 19.671875 -7.640625 L 19.671875 0 L 15.078125 0 C 11.804688 0 9.253906 -0.796875 7.421875 -2.390625 C 5.597656 -3.992188 4.6875 -6.609375 4.6875 -10.234375 L 4.6875 -21.9375 L 1.109375 -21.9375 L 1.109375 -29.421875 L 4.6875 -29.421875 L 4.6875 -36.59375 L 13.71875 -36.59375 L 13.71875 -29.421875 L 19.625 -29.421875 L 19.625 -21.9375 L 13.71875 -21.9375 L 13.71875 -10.125 C 13.71875 -9.25 13.925781 -8.613281 14.34375 -8.21875 C 14.769531 -7.832031 15.472656 -7.640625 16.453125 -7.640625 Z M 19.671875 -7.640625 "/></g></g></g></svg>