<svg width="64" height="64" viewBox="0 0 64 64" fill="none" xmlns="http://www.w3.org/2000/svg">
<circle cx="32" cy="32" r="32" transform="rotate(90 32 32)" fill="white"/>
<path fill-rule="evenodd" clip-rule="evenodd" d="M7.11111 32C7.11111 45.7457 18.2542 56.8889 32 56.8889C45.7458 56.8889 56.8889 45.7458 56.8889 32C56.8889 18.2542 45.7458 7.11111 32 7.11111C18.2542 7.11111 7.11111 18.2542 7.11111 32ZM6.23063e-06 32C5.45811e-06 49.6731 14.3269 64 32 64C49.6731 64 64 49.6731 64 32C64 14.3269 49.6731 -6.26248e-07 32 -1.39876e-06C14.3269 -2.17128e-06 7.00315e-06 14.3269 6.23063e-06 32Z" fill="#E0F466"/>
<path d="M62.9096 23.7177L32 31.9999L48 4.28711C55.0923 8.38187 60.6226 15.1823 62.9096 23.7177Z" fill="#3B3355"/>
</svg>
