<svg width="64" height="64" viewBox="0 0 64 64" fill="none" xmlns="http://www.w3.org/2000/svg">
<path fill-rule="evenodd" clip-rule="evenodd" d="M15.1111 40.2963C15.1111 49.4601 22.5399 56.8889 31.7037 56.8889C40.8675 56.8889 48.2963 49.4601 48.2963 40.2963H55.4074C55.4074 53.3875 44.7949 64 31.7037 64C18.6125 64 8 53.3875 8 40.2963H15.1111Z" fill="#03CEA4"/>
<path d="M31.7037 0C24.5035 0 18.6667 5.83688 18.6667 13.037V39.1111C18.6667 46.3113 24.5035 52.1481 31.7037 52.1481V0Z" fill="white"/>
<path d="M31.7037 0C38.9039 0 44.7407 5.83688 44.7407 13.037V39.1111C44.7407 46.3113 38.9039 52.1481 31.7037 52.1481V0Z" fill="#3B3355"/>
</svg>
